<svg width="2030" height="965" style="background-color:white;" xmlns="http://www.w3.org/2000/svg" xmlns:xlink="http://www.w3.org/1999/xlink" overflow="hidden"><defs><clipPath id="clip0"><rect x="516" y="653" width="2030" height="965"/></clipPath></defs><g clip-path="url(#clip0)" transform="translate(-516 -653)"><rect x="1222.5" y="787.5" width="140" height="110" stroke="#666666" stroke-width="6.875" stroke-linejoin="round" stroke-miterlimit="10" fill="#FFFFFF"/><text font-family="Arial,Arial_MSFontService,sans-serif" font-weight="400" font-size="78" transform="matrix(1 0 0 1 1255.23 871)">1</text><rect x="1222.5" y="1348.5" width="140" height="110" stroke="#666666" stroke-width="6.875" stroke-linejoin="round" stroke-miterlimit="10" fill="#FFFFFF"/><text font-family="Arial,Arial_MSFontService,sans-serif" font-weight="400" font-size="78" transform="matrix(1 0 0 1 1255.23 1432)">3</text><rect x="1812.5" y="784.5" width="140" height="109" stroke="#666666" stroke-width="6.875" stroke-linejoin="round" stroke-miterlimit="10" fill="#FFFFFF"/><text font-family="Arial,Arial_MSFontService,sans-serif" font-weight="400" font-size="78" transform="matrix(1 0 0 1 1845.03 868)">2</text><rect x="1816.5" y="1348.5" width="139" height="110" stroke="#666666" stroke-width="6.875" stroke-linejoin="round" stroke-miterlimit="10" fill="#FFFFFF"/><text font-family="Arial,Arial_MSFontService,sans-serif" font-weight="400" font-size="78" transform="matrix(1 0 0 1 1848.67 1432)">4</text><rect x="2402.5" y="1068.5" width="140" height="110" stroke="#666666" stroke-width="6.875" stroke-linejoin="round" stroke-miterlimit="10" fill="#FFFFFF"/><text font-family="Arial,Arial_MSFontService,sans-serif" font-weight="400" font-size="78" transform="matrix(1 0 0 1 2434.83 1152)">5</text><path d="M1295.94 920.417 1295.94 1348.65 1289.06 1348.65 1289.06 920.417ZM1278.75 925 1292.5 897.5 1306.25 925Z" fill="#666666"/><path d="M1888.87 892.944 1892.28 1313.4 1878.53 1313.51 1875.13 893.056ZM1905.97 1306.42 1885.68 1347.83 1864.72 1306.75Z"/><rect x="632.5" y="1068.5" width="140" height="110" stroke="#666666" stroke-width="6.875" stroke-linejoin="round" stroke-miterlimit="10" fill="#FFFFFF"/><text font-family="Arial,Arial_MSFontService,sans-serif" font-weight="400" font-size="78" transform="matrix(1 0 0 1 665.429 1152)">0</text><path d="M3.63655-5.83448 424.533 256.504 417.26 268.173-3.63655 5.83448ZM425.972 241.199 450.069 280.522 404.152 276.206Z" transform="matrix(1 -1.22465e-16 -1.22465e-16 -1 772 1122.52)"/><text font-family="Arial,Arial_MSFontService,sans-serif" font-weight="400" font-size="83" transform="matrix(1 0 0 1 565.883 1105)">s</text><path d="M775.637 1117.17 1196.53 1379.5 1189.26 1391.17 768.364 1128.83ZM1197.97 1364.2 1222.07 1403.52 1176.15 1399.21Z"/><path d="M3.65807-5.82101 420.941 256.41 413.625 268.052-3.65807 5.82101ZM422.436 241.11 446.388 280.522 400.488 276.036Z" transform="matrix(1 -1.22465e-16 -1.22465e-16 -1 1955 1403.52)"/><path d="M0.0562286-6.87477 415.752-3.47481 415.639 10.2747-0.0562286 6.87477ZM408.989-17.2806 450.069 3.6811 408.652 23.968Z" transform="matrix(1 -1.22465e-16 -1.22465e-16 -1 1362 842.681)"/><rect x="1203.5" y="1052.5" width="178" height="91.0001" stroke="#FFFFFF" stroke-width="6.875" stroke-linejoin="round" stroke-miterlimit="10" fill="#FFFFFF"/><text font-family="Arial,Arial_MSFontService,sans-serif" font-weight="400" font-size="83" transform="matrix(1 0 0 1 1236.44 1128)">25</text><path d="M2381.36 1113.37 1950.66 841.406 1954.34 835.593 2385.03 1107.56ZM2386.66 1096.39 2402.57 1122.7 2371.98 1119.65Z" fill="#666666"/><rect x="954.5" y="916.5" width="90.9998" height="91.0001" stroke="#FFFFFF" stroke-width="6.875" stroke-linejoin="round" stroke-miterlimit="10" fill="#FFFFFF"/><text font-family="Arial,Arial_MSFontService,sans-serif" font-weight="400" font-size="83" transform="matrix(1 0 0 1 986.71 992)">1</text><rect x="940.5" y="1208.5" width="92.0001" height="91.9998" stroke="#FFFFFF" stroke-width="6.875" stroke-linejoin="round" stroke-miterlimit="10" fill="#FFFFFF"/><text font-family="Arial,Arial_MSFontService,sans-serif" font-weight="400" font-size="83" transform="matrix(1 0 0 1 973.237 1285)">1</text><rect x="2077.5" y="915.5" width="270" height="91.0001" stroke="#FFFFFF" stroke-width="6.875" stroke-linejoin="round" stroke-miterlimit="10" fill="#FFFFFF"/><text font-family="Arial,Arial_MSFontService,sans-serif" font-weight="400" font-size="83" transform="matrix(1 0 0 1 2110.04 991)">1</text><rect x="1524.5" y="780.5" width="140" height="90.9998" stroke="#FFFFFF" stroke-width="6.875" stroke-linejoin="round" stroke-miterlimit="10" fill="#FFFFFF"/><text font-family="Arial,Arial_MSFontService,sans-serif" font-weight="400" font-size="83" transform="matrix(1 0 0 1 1556.88 856)">6</text><rect x="2130.5" y="1215.5" width="91" height="92.0001" stroke="#FFFFFF" stroke-width="6.875" stroke-linejoin="round" stroke-miterlimit="10" fill="#FFFFFF"/><text font-family="Arial,Arial_MSFontService,sans-serif" font-weight="400" font-size="83" transform="matrix(1 0 0 1 2162.67 1292)">1</text><path d="M1793.23 1406.94 1362.5 1406.94 1362.5 1400.06 1793.23 1400.06ZM1788.64 1389.75 1816.14 1403.5 1788.64 1417.25Z" fill="#666666"/><rect x="1800.5" y="1058.5" width="210" height="91.0001" stroke="#FFFFFF" stroke-width="6.875" stroke-linejoin="round" stroke-miterlimit="10" fill="#FFFFFF"/><text font-family="Arial,Arial_MSFontService,sans-serif" font-weight="400" font-size="83" transform="matrix(1 0 0 1 1832.87 1134)">-<tspan font-size="83" x="27.5" y="0">20</tspan></text><rect x="1530.5" y="1358.5" width="91.0001" height="91.0001" stroke="#FFFFFF" stroke-width="6.875" stroke-linejoin="round" stroke-miterlimit="10" fill="#FFFFFF"/><text font-family="Arial,Arial_MSFontService,sans-serif" font-weight="400" font-size="83" transform="matrix(1 0 0 1 1562.73 1434)">1<tspan fill="#FF43F0" font-size="83" x="-291.638" y="-668">1</tspan><tspan fill="#FF43F0" font-size="83" x="-291.638" y="110">1</tspan><tspan fill="#FF43F0" font-size="83" x="289.123" y="-667">7</tspan><tspan fill="#FF43F0" font-size="83" x="887.762" y="-380">3</tspan><tspan fill="#FF43F0" font-size="83" x="271.238" y="115">-</tspan><tspan fill="#FF43F0" font-size="83" x="298.738" y="115">13</tspan><tspan font-size="64" x="475.253" y="-649">distTo is wrong!</tspan></text><path d="M2322.88 820.482 2424.1 958.103 2421.33 960.139 2320.12 822.518ZM2431.07 947.282 2436.29 977.582 2408.92 963.575Z" fill="#666666"/></g></svg>